# xmcd
#
# Track frame offsets: 
#        150
#        14090
#        30266
#        43439
#        54104
#        69452
#
# Disc length: 1146 seconds
#
# Revision: 0
# Processed by: cddbd v1.5.2PL0 Copyright (c) Steve Scherf et al.
# Submitted via: ExactAudioCopyFreeDBPlugin 1.0
#
DISCID=49047806
DTITLE=Jamie N Commons - Rumble And Sway EP
DYEAR=2013
DGENRE=Blues
TTITLE0=Rumble And Sway
TTITLE1=Wash Me In The Water
TTITLE2=Worth Your While
TTITLE3=Have A Little Faith
TTITLE4=Caroline (Early Demo)
TTITLE5=The Preacher
EXTD=
EXTT0=
EXTT1=
EXTT2=
EXTT3=
EXTT4=
EXTT5=
PLAYORDER=
